<svg width="112" height="54" viewBox="0 0 112 54" fill="none" xmlns="http://www.w3.org/2000/svg">
<path d="M48.364 46.2995C41.7865 51.2727 34.4211 54.1473 26.4166 53.9809C15.4156 53.7523 7.08949 48.3426 2.47691 38.1787C-4.18209 23.5054 3.0538 6.42727 18.5708 1.31542C30.8782 -2.73907 44.3339 2.84525 50.4147 14.4052C50.8554 15.2431 51.4072 16.085 51.2688 17.3115C48.2327 17.3115 45.219 17.3739 42.2106 17.276C41.222 17.2439 40.8321 16.1432 40.2527 15.4672C36.6133 11.2208 31.9604 9.08367 26.4607 9.09749C17.8767 9.11906 10.3317 16.0111 9.21288 24.6082C8.0643 33.4336 13.6365 42.1851 22.0994 44.2746C29.0111 45.981 35.3376 43.8699 41.187 40.1967C46.6686 36.7546 50.1714 31.5158 53.3721 26.0526C56.5188 20.6816 59.401 15.1555 63.407 10.325C75.7575 -4.56732 98.863 -2.93816 108.396 13.544C118.118 30.3544 107.131 51.9662 87.8957 53.8678C75.3333 55.1098 63.7592 47.4961 59.8229 35.4014C59.7129 35.0632 59.6006 34.7257 59.3586 33.9912C56.0487 38.6197 52.833 42.959 48.364 46.2995ZM101.886 33.0962C103.186 29.3368 103.237 25.5293 102.157 21.7303C99.9177 13.8563 91.3723 8.31644 83.143 9.29075C70.3782 10.8021 63.1206 26.0148 70.379 36.7161C74.3506 42.5715 79.8857 45.4349 86.9087 44.7394C94.0793 44.0293 98.9847 40.0223 101.886 33.0962Z" fill="white"/>
</svg>
