<svg width="404" height="62" viewBox="0 0 404 62" fill="none" xmlns="http://www.w3.org/2000/svg">
<path d="M48.364 54.2995C41.7865 59.2727 34.4211 62.1473 26.4166 61.9809C15.4156 61.7523 7.08949 56.3426 2.47691 46.1787C-4.18209 31.5054 3.0538 14.4273 18.5708 9.31542C30.8782 5.26093 44.3339 10.8452 50.4147 22.4052C50.8554 23.2431 51.4072 24.085 51.2688 25.3115C48.2327 25.3115 45.219 25.3739 42.2106 25.276C41.222 25.2439 40.8321 24.1432 40.2527 23.4672C36.6133 19.2208 31.9604 17.0837 26.4607 17.0975C17.8767 17.1191 10.3317 24.0111 9.21288 32.6082C8.0643 41.4336 13.6365 50.1851 22.0994 52.2746C29.0111 53.981 35.3376 51.8699 41.187 48.1967C46.6686 44.7546 50.1714 39.5158 53.3721 34.0526C56.5188 28.6816 59.401 23.1555 63.407 18.325C75.7575 3.43268 98.863 5.06184 108.396 21.544C118.118 38.3544 107.131 59.9662 87.8957 61.8678C75.3333 63.1098 63.7592 55.4961 59.8229 43.4014C59.7129 43.0632 59.6006 42.7257 59.3586 41.9912C56.0487 46.6197 52.833 50.959 48.364 54.2995ZM101.886 41.0962C103.186 37.3368 103.237 33.5293 102.157 29.7303C99.9177 21.8563 91.3723 16.3164 83.143 17.2907C70.3782 18.8021 63.1206 34.0148 70.379 44.7161C74.3506 50.5715 79.8857 53.4349 86.9087 52.7394C94.0793 52.0293 98.9847 48.0223 101.886 41.0962Z" fill="white"/>
<path d="M115 10V60H130V35C130 25 135 20 145 20C155 20 160 25 160 35V60H175V33C175 17 165 8 150 8C140 8 132 12 128 20V10H115Z" fill="white"/>
<path d="M177 35C177 50 190 62 207 62C222 62 232 55 237 45L222 40C219 45 214 50 207 50C197 50 192 44 190 37H237C237 36 237 34 237 33C237 17 225 8 207 8C190 8 177 20 177 35ZM190 28C192 22 197 18 207 18C217 18 222 22 224 28H190Z" fill="white"/>
<path d="M240 35C240 50 253 62 270 62C280 62 290 58 295 50L282 43C279 47 275 50 270 50C260 50 255 43 255 35C255 27 260 20 270 20C275 20 279 23 282 27L295 20C290 12 280 8 270 8C253 8 240 20 240 35Z" fill="white"/>
<path d="M308 0V10H298V23H308V60H323V23H338V10H323V0H308Z" fill="white"/>
<path d="M339 35C339 50 352 62 369 62C379 62 387 58 391 50V60H404V10H391V20C387 12 379 8 369 8C352 8 339 20 339 35ZM354 35C354 27 359 20 369 20C379 20 384 27 384 35C384 43 379 50 369 50C359 50 354 43 354 35Z" fill="white"/>
</svg>
