<svg width="333" height="136" viewBox="0 0 333 136" fill="none" xmlns="http://www.w3.org/2000/svg">
<path d="M48.364 86.2995C41.7865 91.2727 34.4211 94.1473 26.4166 93.9809C15.4156 93.7523 7.08949 88.3426 2.47691 78.1787C-4.18209 63.5054 3.0538 46.4273 18.5708 41.3154C30.8782 37.2609 44.3339 42.8452 50.4147 54.4052C50.8554 55.2431 51.4072 56.085 51.2688 57.3115C48.2327 57.3115 45.219 57.3739 42.2106 57.276C41.222 57.2439 40.8321 56.1432 40.2527 55.4672C36.6133 51.2208 31.9604 49.0837 26.4607 49.0975C17.8767 49.1191 10.3317 56.0111 9.21288 64.6082C8.0643 73.4336 13.6365 82.1851 22.0994 84.2746C29.0111 85.981 35.3376 83.8699 41.187 80.1967C46.6686 76.7546 50.1714 71.5158 53.3721 66.0526C56.5188 60.6816 59.401 55.1555 63.407 50.325C75.7575 35.4327 98.863 37.0618 108.396 53.544C118.118 70.3544 107.131 91.9662 87.8957 93.8678C75.3333 95.1098 63.7592 87.4961 59.8229 75.4014C59.7129 75.0632 59.6006 74.7257 59.3586 73.9912C56.0487 78.6197 52.833 82.959 48.364 86.2995ZM101.886 73.0962C103.186 69.3368 103.237 65.5293 102.157 61.7303C99.9177 53.8563 91.3723 48.3164 83.143 49.2907C70.3782 50.8021 63.1206 66.0148 70.379 76.7161C74.3506 82.5715 79.8857 85.4349 86.9087 84.7394C94.0793 84.0293 98.9847 80.0223 101.886 73.0962Z" fill="white"/>
<path d="M115.7 94C115.033 94 114.467 93.8 114 93.4C113.6 92.9333 113.4 92.3667 113.4 91.7V44.3C113.4 43.6333 113.6 43.1 114 42.7C114.467 42.2333 115.033 42 115.7 42H120.4C121.067 42 121.6 42.2333 122 42.7C122.467 43.1 122.7 43.6333 122.7 44.3V48.7C124.433 46.4333 126.6 44.6 129.2 43.2C131.867 41.7333 135.267 41 139.4 41C143.733 41 147.4 41.9667 150.4 43.9C153.467 45.7667 155.767 48.4 157.3 51.8C158.833 55.1333 159.6 59.0333 159.6 63.5V91.7C159.6 92.3667 159.4 92.9333 159 93.4C158.6 93.8 158.067 94 157.4 94H152.4C151.733 94 151.167 93.8 150.7 93.4C150.3 92.9333 150.1 92.3667 150.1 91.7V64C150.1 59.3333 148.967 55.7 146.7 53.1C144.433 50.4333 141.1 49.1 136.7 49.1C132.567 49.1 129.233 50.4333 126.7 53.1C124.233 55.7 123 59.3333 123 64V91.7C123 92.3667 122.767 92.9333 122.3 93.4C121.9 93.8 121.367 94 120.7 94H115.7ZM184.745 95C177.878 95 172.411 92.9 168.345 88.7C164.278 84.4333 162.045 78.6333 161.645 71.3C161.578 70.4333 161.545 69.3333 161.545 68C161.545 66.6 161.578 65.4667 161.645 64.6C161.911 59.8667 163.011 55.7333 164.945 52.2C166.878 48.6 169.511 45.8333 172.845 43.9C176.245 41.9667 180.211 41 184.745 41C189.811 41 194.045 42.0667 197.445 44.2C200.911 46.3333 203.545 49.3667 205.345 53.3C207.145 57.2333 208.045 61.8333 208.045 67.1V68.8C208.045 69.5333 207.811 70.1 207.345 70.5C206.945 70.9 206.411 71.1 205.745 71.1H171.145C171.145 71.1667 171.145 71.3 171.145 71.5C171.145 71.7 171.145 71.8667 171.145 72C171.278 74.7333 171.878 77.3 172.945 79.7C174.011 82.0333 175.545 83.9333 177.545 85.4C179.545 86.8667 181.945 87.6 184.745 87.6C187.145 87.6 189.145 87.2333 190.745 86.5C192.345 85.7667 193.645 84.9667 194.645 84.1C195.645 83.1667 196.311 82.4667 196.645 82C197.245 81.1333 197.711 80.6333 198.045 80.5C198.378 80.3 198.911 80.2 199.645 80.2H204.445C205.111 80.2 205.645 80.4 206.045 80.8C206.511 81.1333 206.711 81.6333 206.645 82.3C206.578 83.3 206.045 84.5333 205.045 86C204.045 87.4 202.611 88.8 200.745 90.2C198.878 91.6 196.611 92.7667 193.945 93.7C191.278 94.5667 188.211 95 184.745 95ZM171.145 64.2H198.545V63.9C198.545 60.9 197.978 58.2333 196.845 55.9C195.778 53.5667 194.211 51.7333 192.145 50.4C190.078 49 187.611 48.3 184.745 48.3C181.878 48.3 179.411 49 177.345 50.4C175.345 51.7333 173.811 53.5667 172.745 55.9C171.678 58.2333 171.145 60.9 171.145 63.9V64.2ZM231.002 95C226.268 95 222.168 94.1 218.702 92.3C215.302 90.4333 212.668 87.8 210.802 84.4C208.935 80.9333 207.935 76.8 207.802 72C207.735 71 207.702 69.6667 207.702 68C207.702 66.3333 207.735 65 207.802 64C207.935 59.2 208.935 55.1 210.802 51.7C212.668 48.2333 215.302 45.6 218.702 43.8C222.168 41.9333 226.268 41 231.002 41C234.868 41 238.168 41.5333 240.902 42.6C243.702 43.6667 246.002 45.0333 247.802 46.7C249.602 48.3667 250.935 50.1667 251.802 52.1C252.735 54.0333 253.235 55.8667 253.302 57.6C253.368 58.2667 253.168 58.8 252.702 59.2C252.235 59.6 251.668 59.8 251.002 59.8H246.202C245.535 59.8 245.035 59.6667 244.702 59.4C244.368 59.0667 244.035 58.5333 243.702 57.8C242.502 54.5333 240.868 52.2333 238.802 50.9C236.735 49.5667 234.168 48.9 231.102 48.9C227.102 48.9 223.835 50.1333 221.302 52.6C218.835 55.0667 217.502 59.0333 217.302 64.5C217.235 66.9 217.235 69.2333 217.302 71.5C217.502 77.0333 218.835 81.0333 221.302 83.5C223.835 85.9 227.102 87.1 231.102 87.1C234.168 87.1 236.735 86.4333 238.802 85.1C240.868 83.7667 242.502 81.4667 243.702 78.2C244.035 77.4667 244.368 76.9667 244.702 76.7C245.035 76.3667 245.535 76.2 246.202 76.2H251.002C251.668 76.2 252.235 76.4 252.702 76.8C253.168 77.2 253.368 77.7333 253.302 78.4C253.235 79.8 252.935 81.2333 252.402 82.7C251.868 84.1667 251.002 85.6667 249.802 87.2C248.668 88.6667 247.235 90 245.502 91.2C243.768 92.3333 241.668 93.2667 239.202 94C236.802 94.6667 234.068 95 231.002 95ZM275.477 94C271.744 94 268.711 93.3 266.377 91.9C264.044 90.4333 262.344 88.4 261.277 85.8C260.211 83.1333 259.677 80 259.677 76.4V50H251.877C251.211 50 250.644 49.8 250.177 49.4C249.777 48.9333 249.577 48.3667 249.577 47.7V44.3C249.577 43.6333 249.777 43.1 250.177 42.7C250.644 42.2333 251.211 42 251.877 42H259.677V25.3C259.677 24.6333 259.877 24.1 260.277 23.7C260.744 23.2333 261.311 23 261.977 23H266.677C267.344 23 267.877 23.2333 268.277 23.7C268.744 24.1 268.977 24.6333 268.977 25.3V42H281.377C282.044 42 282.577 42.2333 282.977 42.7C283.444 43.1 283.677 43.6333 283.677 44.3V47.7C283.677 48.3667 283.444 48.9333 282.977 49.4C282.577 49.8 282.044 50 281.377 50H268.977V75.7C268.977 78.8333 269.511 81.3 270.577 83.1C271.644 84.9 273.544 85.8 276.277 85.8H282.377C283.044 85.8 283.577 86.0333 283.977 86.5C284.444 86.9 284.677 87.4333 284.677 88.1V91.7C284.677 92.3667 284.444 92.9333 283.977 93.4C283.577 93.8 283.044 94 282.377 94H275.477ZM298.74 95C295.407 95 292.373 94.3333 289.64 93C286.907 91.6667 284.707 89.8667 283.04 87.6C281.373 85.3333 280.54 82.7667 280.54 79.9C280.54 75.3 282.407 71.6333 286.14 68.9C289.873 66.1667 294.74 64.3667 300.74 63.5L315.64 61.4V58.5C315.64 55.3 314.707 52.8 312.84 51C311.04 49.2 308.073 48.3 303.94 48.3C300.94 48.3 298.507 48.9 296.64 50.1C294.84 51.3 293.573 52.8333 292.84 54.7C292.44 55.7 291.74 56.2 290.74 56.2H286.24C285.507 56.2 284.94 56 284.54 55.6C284.207 55.1333 284.04 54.6 284.04 54C284.04 53 284.407 51.7667 285.14 50.3C285.94 48.8333 287.14 47.4 288.74 46C290.34 44.6 292.373 43.4333 294.84 42.5C297.373 41.5 300.44 41 304.04 41C308.04 41 311.407 41.5333 314.14 42.6C316.873 43.6 319.007 44.9667 320.54 46.7C322.14 48.4333 323.273 50.4 323.94 52.6C324.673 54.8 325.04 57.0333 325.04 59.3V91.7C325.04 92.3667 324.807 92.9333 324.34 93.4C323.94 93.8 323.407 94 322.74 94H318.14C317.407 94 316.84 93.8 316.44 93.4C316.04 92.9333 315.84 92.3667 315.84 91.7V87.4C314.973 88.6 313.807 89.8 312.34 91C310.873 92.1333 309.04 93.1 306.84 93.9C304.64 94.6333 301.94 95 298.74 95ZM300.84 87.5C303.573 87.5 306.073 86.9333 308.34 85.8C310.607 84.6 312.373 82.7667 313.64 80.3C314.973 77.8333 315.64 74.7333 315.64 71V68.2L304.04 69.9C299.307 70.5667 295.74 71.7 293.34 73.3C290.94 74.8333 289.74 76.8 289.74 79.2C289.74 81.0667 290.273 82.6333 291.34 83.9C292.473 85.1 293.873 86 295.54 86.6C297.273 87.2 299.04 87.5 300.84 87.5Z" fill="white"/>
<path d="M116.32 126C116.08 126 115.88 125.92 115.72 125.76C115.56 125.573 115.48 125.373 115.48 125.16C115.48 125.027 115.493 124.907 115.52 124.8L125.04 99.08C125.12 98.7867 125.28 98.5333 125.52 98.32C125.76 98.1067 126.093 98 126.52 98H131.64C132.067 98 132.4 98.1067 132.64 98.32C132.88 98.5333 133.04 98.7867 133.12 99.08L142.64 124.8C142.667 124.907 142.68 125.027 142.68 125.16C142.68 125.373 142.6 125.573 142.44 125.76C142.28 125.92 142.08 126 141.84 126H137.68C137.28 126 136.987 125.907 136.8 125.72C136.613 125.533 136.493 125.36 136.44 125.2L134.72 120.72H123.44L121.72 125.2C121.667 125.36 121.547 125.533 121.36 125.72C121.173 125.907 120.88 126 120.48 126H116.32ZM124.92 115.56H133.2L129.08 104.04L124.92 115.56ZM146.644 126C146.377 126 146.151 125.907 145.964 125.72C145.777 125.533 145.684 125.293 145.684 125V106.2C145.684 105.933 145.777 105.707 145.964 105.52C146.151 105.307 146.377 105.2 146.644 105.2H150.564C150.831 105.2 151.057 105.307 151.244 105.52C151.457 105.707 151.564 105.933 151.564 106.2V107.8C152.231 106.973 153.044 106.333 154.004 105.88C154.991 105.427 156.124 105.2 157.404 105.2H159.124C159.391 105.2 159.617 105.293 159.804 105.48C159.991 105.667 160.084 105.907 160.084 106.2V109.64C160.084 109.933 159.991 110.173 159.804 110.36C159.617 110.547 159.391 110.64 159.124 110.64H155.604C154.431 110.64 153.511 110.973 152.844 111.64C152.177 112.28 151.844 113.2 151.844 114.4V125C151.844 125.293 151.751 125.533 151.564 125.72C151.377 125.907 151.137 126 150.844 126H146.644ZM164.027 126C163.76 126 163.534 125.907 163.347 125.72C163.16 125.533 163.067 125.293 163.067 125V106.2C163.067 105.907 163.16 105.667 163.347 105.48C163.534 105.293 163.76 105.2 164.027 105.2H168.027C168.32 105.2 168.56 105.293 168.747 105.48C168.934 105.667 169.027 105.907 169.027 106.2V125C169.027 125.293 168.934 125.533 168.747 125.72C168.56 125.907 168.32 126 168.027 126H164.027ZM163.907 102C163.64 102 163.414 101.907 163.227 101.72C163.04 101.533 162.947 101.293 162.947 101V97.8C162.947 97.5067 163.04 97.2667 163.227 97.08C163.414 96.8667 163.64 96.76 163.907 96.76H168.107C168.4 96.76 168.64 96.8667 168.827 97.08C169.04 97.2667 169.147 97.5067 169.147 97.8V101C169.147 101.293 169.04 101.533 168.827 101.72C168.64 101.907 168.4 102 168.107 102H163.907ZM188.763 133.6C188.497 133.6 188.27 133.507 188.083 133.32C187.897 133.133 187.803 132.893 187.803 132.6V123.64C187.163 124.493 186.337 125.173 185.323 125.68C184.337 126.16 183.163 126.4 181.803 126.4C180.443 126.4 179.243 126.173 178.203 125.72C177.163 125.267 176.283 124.627 175.563 123.8C174.843 122.973 174.297 121.987 173.923 120.84C173.55 119.693 173.337 118.44 173.283 117.08C173.257 116.547 173.243 116.053 173.243 115.6C173.243 115.147 173.257 114.667 173.283 114.16C173.337 112.72 173.55 111.427 173.923 110.28C174.323 109.133 174.87 108.16 175.563 107.36C176.283 106.533 177.163 105.907 178.203 105.48C179.243 105.027 180.443 104.8 181.803 104.8C183.323 104.8 184.59 105.08 185.603 105.64C186.643 106.173 187.47 106.867 188.083 107.72V106.2C188.083 105.907 188.177 105.667 188.363 105.48C188.55 105.293 188.79 105.2 189.083 105.2H192.883C193.177 105.2 193.417 105.293 193.603 105.48C193.79 105.667 193.883 105.907 193.883 106.2V132.6C193.883 132.893 193.79 133.133 193.603 133.32C193.417 133.507 193.177 133.6 192.883 133.6H188.763ZM183.603 121.6C184.563 121.6 185.337 121.387 185.923 120.96C186.537 120.533 186.99 120 187.283 119.36C187.603 118.693 187.777 117.987 187.803 117.24C187.83 116.733 187.843 116.227 187.843 115.72C187.843 115.213 187.83 114.72 187.803 114.24C187.777 113.44 187.617 112.693 187.323 112C187.057 111.307 186.617 110.733 186.003 110.28C185.417 109.827 184.617 109.6 183.603 109.6C182.617 109.6 181.817 109.827 181.203 110.28C180.617 110.707 180.19 111.28 179.923 112C179.683 112.72 179.537 113.507 179.483 114.36C179.43 115.187 179.43 116.013 179.483 116.84C179.537 117.693 179.683 118.48 179.923 119.2C180.19 119.92 180.617 120.507 181.203 120.96C181.817 121.387 182.617 121.6 183.603 121.6ZM206.566 126.4C205.02 126.4 203.646 126.053 202.446 125.36C201.273 124.64 200.353 123.613 199.686 122.28C199.046 120.92 198.726 119.28 198.726 117.36V106.2C198.726 105.907 198.82 105.667 199.006 105.48C199.193 105.293 199.42 105.2 199.686 105.2H203.926C204.22 105.2 204.46 105.293 204.646 105.48C204.833 105.667 204.926 105.907 204.926 106.2V117.12C204.926 120.107 206.233 121.6 208.846 121.6C210.1 121.6 211.086 121.213 211.806 120.44C212.553 119.64 212.926 118.533 212.926 117.12V106.2C212.926 105.907 213.02 105.667 213.206 105.48C213.393 105.293 213.633 105.2 213.926 105.2H218.166C218.433 105.2 218.66 105.293 218.846 105.48C219.033 105.667 219.126 105.907 219.126 106.2V125C219.126 125.293 219.033 125.533 218.846 125.72C218.66 125.907 218.433 126 218.166 126H214.246C213.953 126 213.713 125.907 213.526 125.72C213.34 125.533 213.246 125.293 213.246 125V123.44C212.553 124.4 211.66 125.133 210.566 125.64C209.473 126.147 208.14 126.4 206.566 126.4ZM233.441 126.4C230.374 126.4 227.934 125.547 226.121 123.84C224.334 122.133 223.387 119.653 223.281 116.4C223.281 116.187 223.281 115.907 223.281 115.56C223.281 115.187 223.281 114.893 223.281 114.68C223.387 112.627 223.854 110.867 224.681 109.4C225.507 107.907 226.667 106.773 228.161 106C229.654 105.2 231.401 104.8 233.401 104.8C235.641 104.8 237.507 105.267 239.001 106.2C240.521 107.107 241.654 108.36 242.401 109.96C243.174 111.533 243.561 113.347 243.561 115.4V116.32C243.561 116.587 243.454 116.813 243.241 117C243.054 117.187 242.827 117.28 242.561 117.28H229.481C229.481 117.307 229.481 117.36 229.481 117.44C229.481 117.493 229.481 117.547 229.481 117.6C229.507 118.453 229.667 119.24 229.961 119.96C230.281 120.653 230.721 121.213 231.281 121.64C231.867 122.067 232.561 122.28 233.361 122.28C234.027 122.28 234.574 122.187 235.001 122C235.427 121.813 235.774 121.587 236.041 121.32C236.334 121.053 236.547 120.827 236.681 120.64C236.921 120.373 237.107 120.213 237.241 120.16C237.401 120.08 237.641 120.04 237.961 120.04H242.121C242.387 120.04 242.601 120.12 242.761 120.28C242.947 120.413 243.027 120.613 243.001 120.88C242.974 121.307 242.747 121.84 242.321 122.48C241.921 123.093 241.321 123.707 240.521 124.32C239.721 124.907 238.721 125.4 237.521 125.8C236.347 126.2 234.987 126.4 233.441 126.4ZM229.481 113.64H237.321V113.56C237.321 112.6 237.161 111.773 236.841 111.08C236.547 110.36 236.107 109.8 235.521 109.4C234.934 109 234.227 108.8 233.401 108.8C232.574 108.8 231.867 109 231.281 109.4C230.694 109.8 230.241 110.36 229.921 111.08C229.627 111.773 229.481 112.6 229.481 113.56V113.64ZM248.519 126C248.252 126 248.026 125.907 247.839 125.72C247.652 125.533 247.559 125.293 247.559 125V106.2C247.559 105.907 247.652 105.667 247.839 105.48C248.026 105.293 248.252 105.2 248.519 105.2H252.239C252.506 105.2 252.732 105.293 252.919 105.48C253.132 105.667 253.239 105.907 253.239 106.2V107.56C253.772 106.813 254.506 106.173 255.439 105.64C256.399 105.107 257.532 104.827 258.839 104.8C261.932 104.747 264.052 105.92 265.199 108.32C265.812 107.28 266.692 106.44 267.839 105.8C269.012 105.133 270.292 104.8 271.679 104.8C273.066 104.8 274.319 105.12 275.439 105.76C276.559 106.373 277.439 107.333 278.079 108.64C278.746 109.92 279.079 111.573 279.079 113.6V125C279.079 125.293 278.986 125.533 278.799 125.72C278.612 125.907 278.386 126 278.119 126H274.159C273.892 126 273.666 125.907 273.479 125.72C273.292 125.533 273.199 125.293 273.199 125V113.92C273.199 112.827 273.039 111.973 272.719 111.36C272.399 110.72 271.972 110.267 271.439 110C270.932 109.733 270.359 109.6 269.719 109.6C269.159 109.6 268.612 109.733 268.079 110C267.572 110.267 267.146 110.72 266.799 111.36C266.479 111.973 266.319 112.827 266.319 113.92V125C266.319 125.293 266.226 125.533 266.039 125.72C265.852 125.907 265.612 126 265.319 126H261.399C261.106 126 260.866 125.907 260.679 125.72C260.492 125.533 260.399 125.293 260.399 125V113.92C260.399 112.827 260.239 111.973 259.919 111.36C259.599 110.72 259.172 110.267 258.639 110C258.132 109.733 257.572 109.6 256.959 109.6C256.399 109.6 255.852 109.747 255.319 110.04C254.786 110.307 254.346 110.747 253.999 111.36C253.679 111.973 253.519 112.813 253.519 113.88V125C253.519 125.293 253.426 125.533 253.239 125.72C253.052 125.907 252.826 126 252.559 126H248.519ZM293.206 126.4C290.14 126.4 287.7 125.547 285.886 123.84C284.1 122.133 283.153 119.653 283.046 116.4C283.046 116.187 283.046 115.907 283.046 115.56C283.046 115.187 283.046 114.893 283.046 114.68C283.153 112.627 283.62 110.867 284.446 109.4C285.273 107.907 286.433 106.773 287.926 106C289.42 105.2 291.166 104.8 293.166 104.8C295.406 104.8 297.273 105.267 298.766 106.2C300.286 107.107 301.42 108.36 302.166 109.96C302.94 111.533 303.326 113.347 303.326 115.4V116.32C303.326 116.587 303.22 116.813 303.006 117C302.82 117.187 302.593 117.28 302.326 117.28H289.246C289.246 117.307 289.246 117.36 289.246 117.44C289.246 117.493 289.246 117.547 289.246 117.6C289.273 118.453 289.433 119.24 289.726 119.96C290.046 120.653 290.486 121.213 291.046 121.64C291.633 122.067 292.326 122.28 293.126 122.28C293.793 122.28 294.34 122.187 294.766 122C295.193 121.813 295.54 121.587 295.806 121.32C296.1 121.053 296.313 120.827 296.446 120.64C296.686 120.373 296.873 120.213 297.006 120.16C297.166 120.08 297.406 120.04 297.726 120.04H301.886C302.153 120.04 302.366 120.12 302.526 120.28C302.713 120.413 302.793 120.613 302.766 120.88C302.74 121.307 302.513 121.84 302.086 122.48C301.686 123.093 301.086 123.707 300.286 124.32C299.486 124.907 298.486 125.4 297.286 125.8C296.113 126.2 294.753 126.4 293.206 126.4ZM289.246 113.64H297.086V113.56C297.086 112.6 296.926 111.773 296.606 111.08C296.313 110.36 295.873 109.8 295.286 109.4C294.7 109 293.993 108.8 293.166 108.8C292.34 108.8 291.633 109 291.046 109.4C290.46 109.8 290.006 110.36 289.686 111.08C289.393 111.773 289.246 112.6 289.246 113.56V113.64ZM315.525 126.4C313.871 126.4 312.445 126.213 311.245 125.84C310.071 125.44 309.111 124.96 308.365 124.4C307.645 123.84 307.098 123.28 306.725 122.72C306.378 122.133 306.191 121.64 306.165 121.24C306.138 120.947 306.231 120.707 306.445 120.52C306.658 120.333 306.871 120.24 307.085 120.24H310.965C311.045 120.24 311.125 120.253 311.205 120.28C311.285 120.307 311.365 120.373 311.445 120.48C311.791 120.72 312.151 121 312.525 121.32C312.898 121.613 313.325 121.867 313.805 122.08C314.311 122.293 314.938 122.4 315.685 122.4C316.565 122.4 317.311 122.227 317.925 121.88C318.538 121.507 318.845 120.987 318.845 120.32C318.845 119.84 318.698 119.44 318.405 119.12C318.138 118.8 317.618 118.507 316.845 118.24C316.071 117.973 314.925 117.68 313.405 117.36C311.965 117.04 310.738 116.613 309.725 116.08C308.711 115.547 307.951 114.88 307.445 114.08C306.938 113.253 306.685 112.267 306.685 111.12C306.685 110.08 307.005 109.08 307.645 108.12C308.311 107.16 309.285 106.373 310.565 105.76C311.845 105.12 313.445 104.8 315.365 104.8C316.831 104.8 318.111 104.987 319.205 105.36C320.325 105.707 321.258 106.16 322.005 106.72C322.751 107.253 323.311 107.813 323.685 108.4C324.085 108.96 324.298 109.453 324.325 109.88C324.351 110.147 324.271 110.373 324.085 110.56C323.898 110.747 323.685 110.84 323.445 110.84H319.885C319.751 110.84 319.631 110.827 319.525 110.8C319.418 110.747 319.325 110.68 319.245 110.6C318.925 110.387 318.591 110.147 318.245 109.88C317.925 109.587 317.538 109.333 317.085 109.12C316.631 108.907 316.045 108.8 315.325 108.8C314.445 108.8 313.765 109 313.285 109.4C312.831 109.773 312.605 110.253 312.605 110.84C312.605 111.213 312.725 111.56 312.965 111.88C313.205 112.2 313.698 112.493 314.445 112.76C315.191 113.027 316.325 113.307 317.845 113.6C319.658 113.92 321.098 114.4 322.165 115.04C323.231 115.68 323.991 116.427 324.445 117.28C324.925 118.107 325.165 119 325.165 119.96C325.165 121.213 324.791 122.333 324.045 123.32C323.298 124.28 322.205 125.04 320.765 125.6C319.351 126.133 317.605 126.4 315.525 126.4Z" fill="white"/>
</svg>
