<?xml version="1.0" encoding="UTF-8" standalone="no"?>
<svg width="600" height="120" viewBox="0 0 600 120" xmlns="http://www.w3.org/2000/svg">
  <!-- Símbolo de infinito para "co" em branco -->
  <path d="M55,60 C55,45 65,30 80,30 C95,30 105,45 105,60 C105,75 95,90 80,90 C65,90 55,75 55,60 M105,60 C105,45 115,30 130,30 C145,30 155,45 155,60 C155,75 145,90 130,90 C115,90 105,75 105,60" fill="white" />
  
  <!-- Letra "n" em branco -->
  <path d="M165,35 L165,85 L180,85 L180,60 C180,50 185,45 195,45 C205,45 210,50 210,60 L210,85 L225,85 L225,58 C225,42 215,33 200,33 C190,33 182,37 178,45 L178,35 L165,35 Z" fill="white" />
  
  <!-- Letra "e" em branco -->
  <path d="M235,60 C235,75 248,87 265,87 C280,87 290,80 295,70 L280,65 C277,70 272,75 265,75 C255,75 250,69 248,62 L295,62 C295,61 295,59 295,58 C295,42 283,33 265,33 C248,33 235,45 235,60 Z M248,53 C250,47 255,43 265,43 C275,43 280,47 282,53 L248,53 Z" fill="white" />
  
  <!-- Letra "c" em branco -->
  <path d="M305,60 C305,75 318,87 335,87 C345,87 355,83 360,75 L347,68 C344,72 340,75 335,75 C325,75 320,68 320,60 C320,52 325,45 335,45 C340,45 344,48 347,52 L360,45 C355,37 345,33 335,33 C318,33 305,45 305,60 Z" fill="white" />
  
  <!-- Letra "t" em branco -->
  <path d="M370,25 L370,35 L360,35 L360,48 L370,48 L370,85 L385,85 L385,48 L400,48 L400,35 L385,35 L385,25 L370,25 Z" fill="white" />
  
  <!-- Letra "a" em branco -->
  <path d="M410,60 C410,75 423,87 440,87 C450,87 458,83 462,75 L462,85 L475,85 L475,35 L462,35 L462,45 C458,37 450,33 440,33 C423,33 410,45 410,60 Z M425,60 C425,52 430,45 440,45 C450,45 455,52 455,60 C455,68 450,75 440,75 C430,75 425,68 425,60 Z" fill="white" />
  
</svg> 